<svg xmlns="http://www.w3.org/2000/svg" width="128" height="128" fill="none" viewBox="0 0 24 24">
    <path fill="#fff" d="M18.413 7.902a.62.62 0 0 1-.411.163H3.58c-.512 0-.77-.585-.416-.928l2.369-2.284a.6.6 0 0 1 .41-.169H20.42c.517 0 .77.59.41.935z"/>
    <path fill="#fff" d="M18.413 19.158a.62.62 0 0 1-.411.158H3.58c-.512 0-.77-.58-.416-.923l2.369-2.29a.6.6 0 0 1 .41-.163H20.42c.517 0 .77.586.41.928z"/>
    <path fill="#fff" d="M18.413 10.473a.62.62 0 0 0-.411-.158H3.58c-.512 0-.77.58-.416.923l2.369 2.29c.111.103.257.16.41.163H20.42c.517 0 .77-.586.41-.928z"/>
</svg>
